<?xml version="1.0" encoding="UTF-8"?>
<svg id="_圖層_1" data-name="圖層_1" xmlns="http://www.w3.org/2000/svg" viewBox="0 0 199.96 192.24">
  <defs>
    <style>
      .cls-1 {
        fill: #585858;
      }

      .cls-2 {
        fill: #fff;
      }
    </style>
  </defs>
  <polygon class="cls-2" points="186.56 102.62 181.61 102.62 176.67 102.62 171.72 102.62 166.76 102.62 161.83 102.62 102.45 102.62 97.51 102.62 92.56 102.62 87.6 102.62 82.67 102.62 77.71 102.62 72.78 102.62 67.82 102.62 62.87 102.62 57.93 102.62 52.98 102.62 48.02 102.62 43.09 102.62 38.13 102.62 33.2 102.62 28.24 102.62 23.29 102.62 18.35 102.62 13.4 102.62 8.45 102.62 8.45 106.95 13.4 106.95 13.4 111.28 18.35 111.28 18.35 115.62 18.35 119.95 23.29 119.95 23.29 124.28 23.29 128.61 28.24 128.61 28.24 124.28 33.2 124.28 33.2 119.95 33.2 115.62 38.13 115.62 43.09 115.62 48.02 115.62 52.98 115.62 57.93 115.62 62.87 115.62 67.82 115.62 72.78 115.62 77.71 115.62 82.67 115.62 87.6 115.62 92.56 115.62 97.51 115.62 102.45 115.62 122.25 115.62 127.18 115.62 132.14 115.62 137.09 115.62 142.03 115.62 146.98 115.62 151.92 115.62 156.87 115.62 161.83 115.62 166.76 115.62 166.76 119.95 166.76 124.28 171.72 124.28 171.72 128.61 176.67 128.61 176.67 124.28 176.67 119.95 181.61 119.95 181.61 115.62 181.61 111.28 186.56 111.28 186.56 106.95 191.5 106.95 191.5 102.62 186.56 102.62"/>
  <g>
    <polygon class="cls-1" points="191.5 98.28 186.56 98.28 181.61 98.28 176.67 98.28 171.72 98.28 169.24 98.28 166.76 98.28 57.93 98.28 52.98 98.28 48.02 98.28 43.09 98.28 38.13 98.28 33.2 98.28 28.24 98.28 23.29 98.28 18.35 98.28 13.4 98.28 8.45 98.28 3.51 98.28 3.51 102.62 3.51 106.95 8.45 106.95 8.45 102.62 13.4 102.62 18.35 102.62 23.29 102.62 28.24 102.62 33.2 102.62 38.13 102.62 43.09 102.62 48.02 102.62 52.98 102.62 57.93 102.62 57.93 102.61 166.76 102.61 166.76 102.62 171.72 102.62 176.67 102.62 181.61 102.62 186.56 102.62 191.5 102.62 191.5 106.95 196.45 106.95 196.45 102.62 196.45 98.28 191.5 98.28"/>
    <polygon class="cls-1" points="186.56 111.28 181.61 111.28 181.61 115.62 181.61 119.95 176.67 119.95 176.67 124.28 176.67 128.61 181.61 128.61 181.61 124.28 186.56 124.28 186.56 119.95 186.56 115.62 191.5 115.62 191.5 111.28 191.5 106.95 186.56 106.95 186.56 111.28"/>
    <rect class="cls-1" x="171.72" y="128.61" width="4.95" height="4.34"/>
    <rect class="cls-1" x="166.76" y="124.28" width="4.95" height="4.33"/>
    <polygon class="cls-1" points="166.76 115.62 161.83 115.62 156.87 115.62 151.92 115.62 146.98 115.62 142.03 115.62 137.09 115.62 132.14 115.62 127.18 115.62 122.25 115.62 117.55 115.62 117.55 115.61 97.51 115.61 97.51 115.62 92.56 115.62 87.6 115.62 82.67 115.62 77.71 115.62 72.78 115.62 67.82 115.62 62.87 115.62 57.93 115.62 52.98 115.62 48.02 115.62 43.09 115.62 38.13 115.62 33.2 115.62 33.2 119.95 33.2 124.28 38.13 124.28 38.13 119.95 43.09 119.95 48.02 119.95 52.98 119.95 57.93 119.95 62.87 119.95 67.82 119.95 72.78 119.95 77.71 119.95 82.67 119.95 87.6 119.95 92.56 119.95 97.51 119.95 117.29 119.95 117.55 119.95 122.25 119.95 127.18 119.95 132.14 119.95 137.09 119.95 142.03 119.95 146.98 119.95 151.92 119.95 156.87 119.95 161.83 119.95 161.83 124.28 166.76 124.28 166.76 119.95 166.76 115.62"/>
    <rect class="cls-1" x="28.24" y="124.28" width="4.95" height="4.33"/>
    <rect class="cls-1" x="23.29" y="128.61" width="4.95" height="4.34"/>
    <polygon class="cls-1" points="23.29 119.95 18.35 119.95 18.35 115.62 18.35 111.28 13.4 111.28 13.4 106.95 8.45 106.95 8.45 111.28 8.45 115.62 13.4 115.62 13.4 119.95 13.4 124.28 18.35 124.28 18.35 128.61 23.29 128.61 23.29 124.28 23.29 119.95"/>
  </g>
  <g>
    <g>
      <polygon class="cls-1" points="191.5 167.61 191.5 171.94 186.56 171.94 181.61 171.94 176.67 171.94 171.72 171.94 166.76 171.94 161.83 171.94 156.87 171.94 151.92 171.94 146.98 171.94 142.03 171.94 137.09 171.94 132.14 171.94 127.18 171.94 122.25 171.94 117.29 171.94 112.34 171.94 107.4 171.94 102.45 171.94 97.51 171.94 92.56 171.94 87.6 171.94 82.67 171.94 77.71 171.94 72.78 171.94 67.82 171.94 62.87 171.94 57.93 171.94 52.98 171.94 48.02 171.94 43.09 171.94 38.13 171.94 33.2 171.94 28.24 171.94 23.29 171.94 18.35 171.94 13.4 171.94 8.45 171.94 8.45 167.61 3.51 167.61 3.51 171.94 3.51 176.28 8.45 176.28 13.4 176.28 18.35 176.28 23.29 176.28 28.24 176.28 33.2 176.28 38.13 176.28 43.09 176.28 48.02 176.28 52.98 176.28 57.93 176.28 62.87 176.28 67.82 176.28 72.78 176.28 77.71 176.28 82.67 176.28 87.6 176.28 92.56 176.28 97.51 176.28 102.45 176.28 107.4 176.28 112.34 176.28 117.29 176.28 122.25 176.28 127.18 176.28 132.14 176.28 137.09 176.28 142.03 176.28 146.98 176.28 151.92 176.28 156.87 176.28 161.83 176.28 166.76 176.28 171.72 176.28 176.67 176.28 181.61 176.28 186.56 176.28 191.5 176.28 196.45 176.28 196.45 171.94 196.45 167.61 191.5 167.61"/>
      <polygon class="cls-1" points="186.56 167.61 191.5 167.61 191.5 163.28 186.56 163.28 181.61 163.28 181.61 167.61 186.56 167.61"/>
      <rect class="cls-1" x="176.67" y="158.94" width="4.94" height="4.34"/>
      <rect class="cls-1" x="171.72" y="154.61" width="4.95" height="4.33"/>
      <polygon class="cls-1" points="142.03 154.61 146.98 154.61 151.92 154.61 156.87 154.61 161.83 154.61 166.76 154.61 171.72 154.61 171.72 150.28 166.76 150.28 161.83 150.28 156.87 150.28 151.92 150.28 146.98 150.28 142.03 150.28 137.09 150.28 137.09 154.61 142.03 154.61"/>
      <rect class="cls-1" x="161.83" y="137.28" width="4.94" height="4.33"/>
      <rect class="cls-1" x="156.87" y="132.95" width="4.95" height="4.33"/>
      <rect class="cls-1" x="151.92" y="128.61" width="4.95" height="4.34"/>
      <polygon class="cls-1" points="151.92 141.61 146.98 141.61 142.03 141.61 142.03 137.28 137.09 137.28 132.14 137.28 132.14 141.61 127.18 141.61 122.25 141.61 122.25 137.28 117.29 137.28 112.34 137.28 107.4 137.28 102.45 137.28 97.51 137.28 97.51 141.61 102.45 141.61 107.4 141.61 112.34 141.61 112.34 145.95 117.29 145.95 122.25 145.95 127.18 145.95 127.18 150.28 132.14 150.28 137.09 150.28 137.09 145.95 142.03 145.95 146.98 145.95 151.92 145.95 156.87 145.95 161.83 145.95 161.83 141.61 156.87 141.61 151.92 141.61"/>
      <polygon class="cls-1" points="57.93 128.61 62.87 128.61 67.82 128.61 72.78 128.61 77.71 128.61 82.67 128.61 102.45 128.61 104.15 128.61 107.4 128.61 112.34 128.61 117.29 128.61 122.25 128.61 127.18 128.61 132.14 128.61 137.09 128.61 142.03 128.61 146.98 128.61 151.92 128.61 151.92 124.28 146.98 124.28 142.03 124.28 137.09 124.28 132.14 124.28 127.18 124.28 122.25 124.28 117.29 124.28 112.34 124.28 107.4 124.28 104.15 124.28 102.45 124.28 82.67 124.28 77.71 124.28 72.78 124.28 67.82 124.28 62.87 124.28 57.93 124.28 52.98 124.28 48.02 124.28 48.02 128.61 52.98 128.61 57.93 128.61"/>
      <rect class="cls-1" x="43.09" y="128.61" width="4.94" height="4.34"/>
      <rect class="cls-1" x="38.13" y="132.95" width="4.95" height="4.33"/>
      <polygon class="cls-1" points="38.13 154.61 43.09 154.61 48.02 154.61 52.98 154.61 57.93 154.61 62.87 154.61 67.82 154.61 67.82 150.28 72.78 150.28 72.78 145.95 74.98 145.95 77.71 145.95 82.67 145.95 82.67 141.61 77.71 141.61 74.98 141.61 72.78 141.61 62.87 141.61 57.93 141.61 52.98 141.61 48.02 141.61 43.09 141.61 38.13 141.61 38.13 145.95 43.09 145.95 48.02 145.95 52.98 145.95 57.93 145.95 62.87 145.95 62.87 150.28 57.93 150.28 52.98 150.28 48.02 150.28 43.09 150.28 38.13 150.28 33.2 150.28 28.24 150.28 28.24 154.61 33.2 154.61 38.13 154.61"/>
      <rect class="cls-1" x="33.2" y="137.28" width="4.94" height="4.33"/>
      <rect class="cls-1" x="23.29" y="154.61" width="4.95" height="4.33"/>
      <rect class="cls-1" x="18.35" y="158.94" width="4.94" height="4.34"/>
      <polygon class="cls-1" points="18.35 167.61 18.35 163.28 13.4 163.28 8.45 163.28 8.45 167.61 13.4 167.61 18.35 167.61"/>
    </g>
    <polygon class="cls-2" points="186.56 167.61 181.61 167.61 181.61 163.28 176.67 163.28 176.67 158.94 171.72 158.94 171.72 154.61 166.76 154.61 161.83 154.61 156.87 154.61 151.92 154.61 146.98 154.61 142.03 154.61 137.09 154.61 137.09 150.28 132.14 150.28 127.18 150.28 127.18 145.95 122.25 145.95 117.29 145.95 112.34 145.95 112.34 141.61 107.4 141.61 102.45 141.61 97.51 141.61 97.51 137.28 102.45 137.28 107.4 137.28 112.34 137.28 117.29 137.28 122.25 137.28 122.25 141.61 127.18 141.61 132.14 141.61 132.14 137.28 137.09 137.28 142.03 137.28 142.03 141.61 146.98 141.61 151.92 141.61 156.87 141.61 161.83 141.61 161.83 137.28 156.87 137.28 156.87 132.95 151.92 132.95 151.92 128.61 146.98 128.61 142.03 128.61 137.09 128.61 132.14 128.61 127.18 128.61 122.25 128.61 117.29 128.61 112.34 128.61 107.4 128.61 102.45 128.61 97.51 128.61 95.09 128.61 92.56 128.61 77.71 128.61 72.78 128.61 67.82 128.61 62.87 128.61 57.93 128.61 52.98 128.61 48.02 128.61 48.02 132.95 43.09 132.95 43.09 137.28 38.13 137.28 38.13 141.61 43.09 141.61 48.02 141.61 52.98 141.61 57.93 141.61 62.87 141.61 67.82 141.61 77.71 141.61 82.67 141.61 82.67 145.95 77.71 145.95 72.78 145.95 72.78 150.28 67.82 150.28 67.82 154.61 62.87 154.61 57.93 154.61 52.98 154.61 48.02 154.61 43.09 154.61 38.13 154.61 33.2 154.61 28.24 154.61 28.24 158.94 23.29 158.94 23.29 163.28 18.35 163.28 18.35 167.61 13.4 167.61 8.45 167.61 8.45 171.94 13.4 171.94 18.35 171.94 23.29 171.94 28.24 171.94 33.2 171.94 38.13 171.94 43.09 171.94 48.02 171.94 52.98 171.94 57.93 171.94 62.87 171.94 67.82 171.94 72.78 171.94 77.71 171.94 82.67 171.94 87.6 171.94 92.56 171.94 97.51 171.94 102.45 171.94 107.4 171.94 112.34 171.94 117.29 171.94 122.25 171.94 127.18 171.94 132.14 171.94 137.09 171.94 142.03 171.94 146.98 171.94 151.92 171.94 156.87 171.94 161.83 171.94 166.76 171.94 171.72 171.94 176.67 171.94 181.61 171.94 186.56 171.94 191.5 171.94 191.5 167.61 186.56 167.61"/>
  </g>
  <g>
    <g>
      <polygon class="cls-1" points="181.61 46.29 176.67 46.29 176.67 50.62 171.72 50.62 171.72 54.96 171.72 59.29 166.76 59.29 166.76 63.62 161.83 63.62 156.87 63.62 151.92 63.62 33.2 63.62 33.2 59.29 28.24 59.29 28.24 54.96 28.24 50.62 23.29 50.62 23.29 46.29 18.35 46.29 18.35 41.96 13.4 41.96 13.4 46.29 13.4 50.62 18.35 50.62 18.35 54.96 23.29 54.96 23.29 59.29 23.29 63.62 28.24 63.62 28.24 67.96 33.2 67.96 151.92 67.96 156.87 67.96 161.83 67.96 166.76 67.96 171.72 67.96 171.72 63.62 176.67 63.62 176.67 59.29 176.67 54.96 181.61 54.96 181.61 50.62 186.56 50.62 186.56 46.29 186.56 41.96 181.61 41.96 181.61 46.29"/>
      <polygon class="cls-1" points="186.56 33.29 181.61 33.29 176.67 33.29 171.72 33.29 166.76 33.29 161.83 33.29 156.87 33.29 151.92 33.29 146.98 33.29 142.03 33.29 137.09 33.29 132.14 33.29 127.18 33.29 122.25 33.29 117.29 33.29 112.34 33.29 107.4 33.29 107.4 28.96 102.45 28.96 102.45 24.63 97.51 24.63 97.51 20.29 92.56 20.29 87.6 20.29 87.6 15.96 82.67 15.96 77.71 15.96 77.71 20.29 82.67 20.29 82.67 24.63 82.67 28.96 87.6 28.96 87.6 24.63 92.56 24.63 92.56 28.96 97.51 28.96 97.51 33.29 102.45 33.29 102.45 37.63 107.4 37.63 112.34 37.63 117.29 37.63 122.25 37.63 127.18 37.63 132.14 37.63 137.09 37.63 142.03 37.63 146.98 37.63 151.92 37.63 156.87 37.63 161.83 37.63 166.76 37.63 171.72 37.63 176.67 37.63 181.61 37.63 186.56 37.63 186.56 41.96 191.5 41.96 191.5 37.63 191.5 33.29 186.56 33.29"/>
      <polygon class="cls-1" points="18.35 37.63 23.29 37.63 28.24 37.63 33.2 37.63 38.13 37.63 43.09 37.63 48.02 37.63 52.98 37.63 57.93 37.63 62.87 37.63 67.82 37.63 72.78 37.63 77.71 37.63 82.67 37.63 87.6 37.63 92.56 37.63 92.56 33.29 92.56 28.96 87.6 28.96 87.6 33.29 82.67 33.29 77.71 33.29 72.78 33.29 67.82 33.29 62.87 33.29 57.93 33.29 52.98 33.29 48.02 33.29 43.09 33.29 38.13 33.29 33.2 33.29 28.24 33.29 23.29 33.29 18.35 33.29 13.4 33.29 8.45 33.29 8.45 37.63 8.45 41.96 13.4 41.96 13.4 37.63 18.35 37.63"/>
    </g>
    <g>
      <polygon class="cls-2" points="181.61 37.63 176.67 37.63 171.72 37.63 166.76 37.63 161.83 37.63 156.87 37.63 151.92 37.63 146.98 37.63 142.03 37.63 137.09 37.63 132.14 37.63 127.18 37.63 122.25 37.63 117.29 37.63 112.34 37.63 107.4 37.63 102.45 37.63 102.45 33.29 97.51 33.29 97.51 28.96 92.56 28.96 92.56 33.29 92.56 37.63 87.6 37.63 82.67 37.63 77.71 37.63 72.78 37.63 67.82 37.63 62.87 37.63 57.93 37.63 52.98 37.63 48.02 37.63 43.09 37.63 38.13 37.63 33.2 37.63 28.24 37.63 23.29 37.63 18.35 37.63 13.4 37.63 13.4 41.96 18.35 41.96 18.35 46.29 23.29 46.29 23.29 50.62 28.24 50.62 28.24 54.96 28.24 59.29 33.2 59.29 33.2 63.62 34.45 63.62 38.13 63.62 107.4 63.62 112.34 63.62 116.27 63.62 117.29 63.62 122.25 63.62 127.18 63.62 132.14 63.62 137.09 63.62 142.03 63.62 146.98 63.62 151.92 63.62 156.87 63.62 161.83 63.62 166.76 63.62 166.76 59.29 171.72 59.29 171.72 54.96 171.72 50.62 176.67 50.62 176.67 46.29 181.61 46.29 181.61 41.96 186.56 41.96 186.56 37.63 181.61 37.63"/>
      <rect class="cls-2" x="87.6" y="24.63" width="4.95" height="4.33"/>
    </g>
  </g>
  <g>
    <g>
      <rect class="cls-2" x="97.51" y="119.95" width="4.94" height="4.33"/>
      <path class="cls-2" d="M161.83,85.29v-8.67h-9.91v-4.33h-44.52v-4.34h-49.47v-4.33h-14.84v4.33h-4.95v21.67h4.95v4.33h14.84v4.33h44.52v4.34h14.84v4.33h-4.95v4.33h-4.94v4.34h-4.95v4.33h9.89v-4.33h4.95v-4.34h4.95v-4.33h34.63v-4.33h4.95v-4.34h4.94v-12.98h-4.94ZM87.6,80.95v4.34h-9.89v-8.67h9.89v4.33ZM107.4,85.29v4.33h-9.89v-8.67h9.89v4.34ZM127.18,89.62v4.33h-9.89v-8.66h9.89v4.33Z"/>
    </g>
    <g>
      <polygon points="166.76 85.29 166.76 89.62 166.76 93.95 166.76 98.28 171.72 98.28 171.72 93.95 171.72 89.62 171.72 85.29 166.76 85.29"/>
      <rect x="161.83" y="98.28" width="4.94" height="4.34"/>
      <polygon points="161.83 85.29 166.76 85.29 166.76 80.95 166.76 76.62 161.83 76.62 161.83 80.95 161.83 85.29"/>
      <rect x="156.87" y="102.62" width="4.95" height="4.33"/>
      <polygon points="156.87 76.62 161.83 76.62 161.83 72.29 156.87 72.29 151.92 72.29 151.92 76.62 156.87 76.62"/>
      <polygon points="146.98 106.95 142.03 106.95 137.09 106.95 132.14 106.95 127.18 106.95 122.25 106.95 122.25 111.28 127.18 111.28 132.14 111.28 137.09 111.28 142.03 111.28 146.98 111.28 151.92 111.28 156.87 111.28 156.87 106.95 151.92 106.95 146.98 106.95"/>
      <polygon points="112.34 72.29 117.29 72.29 122.25 72.29 127.18 72.29 132.14 72.29 137.09 72.29 142.03 72.29 146.98 72.29 151.92 72.29 151.92 67.95 146.98 67.95 142.03 67.95 137.09 67.95 132.14 67.95 127.18 67.95 122.25 67.95 117.29 67.95 112.34 67.95 107.4 67.95 107.4 72.29 112.34 72.29"/>
      <polygon points="117.29 85.29 117.29 89.62 117.29 93.95 122.25 93.95 127.18 93.95 127.18 89.62 127.18 85.29 122.25 85.29 117.29 85.29"/>
      <rect x="117.29" y="111.28" width="4.95" height="4.34"/>
      <rect x="112.34" y="115.62" width="4.95" height="4.33"/>
      <polygon points="112.34 106.95 117.29 106.95 117.29 102.62 112.34 102.62 107.4 102.62 102.45 102.62 102.45 106.95 107.4 106.95 107.4 111.28 112.34 111.28 112.34 106.95"/>
      <polygon points="102.45 119.95 102.45 124.28 107.4 124.28 112.34 124.28 112.34 119.95 107.4 119.95 102.45 119.95"/>
      <rect x="102.45" y="111.28" width="4.95" height="4.34"/>
      <polygon points="97.51 80.95 97.51 85.29 97.51 89.62 102.45 89.62 107.4 89.62 107.4 85.29 107.4 80.95 102.45 80.95 97.51 80.95"/>
      <rect x="97.51" y="115.62" width="4.94" height="4.33"/>
      <polygon points="97.51 119.95 92.56 119.95 87.6 119.95 87.6 124.28 82.67 124.28 82.67 128.61 77.71 128.61 77.71 132.95 72.78 132.95 72.78 137.28 67.82 137.28 67.82 141.61 62.87 141.61 62.87 145.95 67.82 145.95 72.78 145.95 72.78 141.61 77.71 141.61 77.71 137.28 82.67 137.28 87.6 137.28 87.6 132.95 92.56 132.95 92.56 128.61 97.51 128.61 102.45 128.61 102.45 124.28 97.51 124.28 97.51 119.95"/>
      <polygon points="77.71 76.62 77.71 80.95 77.71 85.29 82.67 85.29 87.6 85.29 87.6 80.95 87.6 76.62 82.67 76.62 77.71 76.62"/>
      <polygon points="97.51 98.28 92.56 98.28 87.6 98.28 82.67 98.28 77.71 98.28 72.78 98.28 67.82 98.28 62.87 98.28 57.93 98.28 57.93 102.62 62.87 102.62 67.82 102.62 72.78 102.62 77.71 102.62 82.67 102.62 87.6 102.62 92.56 102.62 97.51 102.62 102.45 102.62 102.45 98.28 97.51 98.28"/>
      <rect x="57.93" y="145.95" width="4.94" height="4.33"/>
      <polygon points="52.98 63.62 57.93 63.62 57.93 67.95 62.87 67.95 67.82 67.95 72.78 67.95 77.71 67.95 82.67 67.95 87.6 67.95 92.56 67.95 97.51 67.95 102.45 67.95 107.4 67.95 107.4 63.62 102.45 63.62 97.51 63.62 92.56 63.62 87.6 63.62 82.67 63.62 77.71 63.62 72.78 63.62 67.82 63.62 67.82 59.29 62.87 59.29 57.93 59.29 52.98 59.29 48.02 59.29 43.09 59.29 43.09 63.62 48.02 63.62 52.98 63.62"/>
      <polygon points="52.98 93.95 48.02 93.95 43.09 93.95 43.09 89.62 38.13 89.62 38.13 93.95 38.13 98.28 43.09 98.28 48.02 98.28 52.98 98.28 57.93 98.28 57.93 93.95 52.98 93.95"/>
      <rect x="38.13" y="63.62" width="4.95" height="4.33"/>
      <polygon points="38.13 80.95 38.13 76.62 38.13 72.29 38.13 67.95 33.2 67.95 33.2 72.29 33.2 76.62 33.2 80.95 33.2 85.29 33.2 89.62 38.13 89.62 38.13 85.29 38.13 80.95"/>
    </g>
  </g>
</svg>